<svg xmlns="http://www.w3.org/2000/svg" version="1.1" xmlns:xlink="http://www.w3.org/1999/xlink" xmlns:svgjs="http://svgjs.com/svgjs" width="512" height="512">
<style>
    @media (prefers-color-scheme: light) {
      .theme-color {
        fill: #000000;
      }
    }
    @media (prefers-color-scheme: dark) {
      .theme-color {
        fill: #FFFFFF;
      }
    }
  </style>
    <svg width="512" height="512" viewBox="0 0 512 512" fill="none" xmlns="http://www.w3.org/2000/svg">
        <circle class="theme-color" cx="256" cy="256" r="80" transform="rotate(-180 256 256)"></circle>
        <path class="theme-color" d="M334 100.056C334 50.8718 373.847 11 423 11C472.153 11 512 50.8718 512 100.056C512 130.306 480.115 171.982 480.115 171.982C480.115 171.982 427.327 236.133 427.327 256.326C427.327 276.516 456.851 312.743 480.115 341.285C497.341 362.431 512 383.184 512 411.944C512 461.128 472.153 501 423 501C373.847 501 334 461.128 334 411.944C334 384.78 349.322 361.543 365.887 341.285C389.152 312.74 418.674 276.516 418.674 256.326C418.674 236.289 366.784 171.982 366.784 171.982C366.784 171.982 334 131.672 334 100.056Z" fill="#3F2A98"></path>
        <path class="theme-color" d="M0 100.056C0 50.8718 39.8467 11 89 11C138.153 11 178 50.8718 178 100.056C178 130.306 146.115 171.982 146.115 171.982C146.115 171.982 93.3276 236.133 93.3276 256.326C93.3276 276.516 122.851 312.743 146.115 341.285C163.341 362.431 178 383.184 178 411.944C178 461.128 138.153 501 89 501C39.8467 501 0 461.128 0 411.944C0 384.78 15.3226 361.543 31.8867 341.285C55.1519 312.74 84.6738 276.516 84.6738 256.326C84.6738 236.289 32.7845 171.982 32.7845 171.982C32.7845 171.982 0 131.672 0 100.056Z" fill="#3F2A98"></path>
    </svg>
</svg>
